<svg width="102" height="104" xmlns="http://www.w3.org/2000/svg" xmlns:xlink="http://www.w3.org/1999/xlink" xml:space="preserve" overflow="hidden"><g transform="translate(-88 -220)"><g><g><g><g><path d="M168.219 271.575C168.431 270.194 168.644 268.972 168.803 268.016 168.856 267.75 169.016 266.741 169.334 265.519 169.547 264.669 169.653 264.297 169.812 263.978 170.131 263.181 170.503 262.597 170.822 262.225 170.875 262.172 171.034 261.959 171.353 261.906 171.672 261.853 171.938 262.066 171.938 262.066 172.15 262.278 172.522 262.597 172.894 263.075 173.425 263.659 173.531 263.925 174.328 264.987 174.594 265.359 174.966 265.784 175.337 266.263 175.444 266.422 175.816 266.847 176.347 267.484 176.825 268.069 177.516 268.812 178.312 269.663 178.153 269.503 175.869 267.219 172.628 267.909 170.716 268.334 168.909 269.716 168.272 271.575 168.166 271.841 168.113 272.106 168.059 272.425 167.9 273.275 167.847 274.125 167.741 274.975 167.634 275.825 167.475 276.728 167.369 277.578L166.572 283.156C166.359 284.538 166.2 285.919 165.988 287.3 165.881 288.044 165.669 289.106 165.456 290.328 164.659 294.419 163.703 299.041 160.675 302.122 159.878 302.919 158.869 303.609 157.7 303.609 156.372 303.609 155.256 302.653 154.459 301.644 152.653 299.2 151.962 296.013 151.272 293.091 150.528 290.009 150.05 287.141 149.784 284.538 149.731 284.219 149.678 283.953 149.678 283.634L147.766 269.928C146.809 263.181 146.119 256.381 144.631 249.741 144.206 247.775 143.675 245.756 142.719 244.003 141.922 242.516 140.7 240.656 138.894 240.497 137.938 240.391 136.981 240.816 136.238 241.453 132.891 244.322 132.625 249.316 131.934 253.406 131.456 256.222 131.084 258.931 130.766 261.534 130.659 262.331 130.553 263.075 130.447 263.872 129.809 268.494 129.172 273.116 128.587 277.737 127.738 283.847 127.206 290.009 125.772 296.013 125.188 298.509 124.338 301.166 122.266 302.706 121.681 303.131 120.991 303.503 120.247 303.556 119.503 303.609 118.759 303.344 118.122 302.972 116.847 302.228 115.891 301.059 115.2 299.784 114.509 298.509 114.031 297.075 113.659 295.694 112.544 291.816 111.853 287.884 111.269 283.9 110.95 281.775 110.578 279.65 110.259 277.525 109.994 275.931 109.834 274.391 109.516 272.797 109.144 270.619 107.231 268.866 105.106 268.388 102.131 267.697 99.9531 269.609 99.7406 269.769 100.803 268.706 101.6 267.75 102.078 267.059 104.256 263.978 104.841 263.128 104.841 263.128 104.894 263.022 105.106 262.756 105.372 262.438 105.637 262.172 105.903 262.013 106.116 261.906 106.275 261.959 106.541 262.119 106.806 262.331 107.55 262.969 107.709 263.819 107.816 264.297 108.081 265.519 108.506 266.741 108.666 268.016 108.825 268.919 109.037 270.3 109.356 272.106M144.1 247.403C143.516 244.8 141.178 242.887 138.522 242.887 135.866 242.887 133.581 244.8 132.997 247.403M152.175 296.384C153.025 299.2 155.734 301.059 158.55 300.847 161.047 300.688 163.225 298.881 163.969 296.384M113.606 295.694C114.191 298.562 116.741 300.634 119.609 300.634 122.584 300.688 125.188 298.616 125.825 295.694" stroke="#000000" stroke-width="6.375" stroke-linecap="round" stroke-linejoin="round" stroke-miterlimit="10" stroke-opacity="1" fill="none" fill-rule="nonzero"/></g></g></g></g></g></svg>